<svg width="100" height="100" viewBox="0 0 100 100" fill="none" xmlns="http://www.w3.org/2000/svg">
<g clip-path="url(#clip0)">
<path d="M100 50C100.009 56.7684 98.6389 63.4678 95.9734 69.6893L95.8077 70.071C91.2989 80.3282 83.4808 88.7773 73.6036 94.0671C63.7264 99.3569 52.3607 101.182 41.324 99.2499C41.0237 99.1967 40.7239 99.1415 40.4246 99.0843C37.3318 98.4847 34.3033 97.5916 31.3802 96.4171C30.9053 96.2263 30.4339 96.0285 29.966 95.8239C29.6465 95.6849 29.3269 95.5414 29.0104 95.3934C20.3505 91.3798 13.0185 84.9743 7.8786 76.9317C2.73868 68.8891 0.00508381 59.5447 0 50C0 22.3861 22.3861 0 50 0C77.6139 0 100 22.3861 100 50Z" fill="#D56B6B"/>
<path opacity="0.2" d="M41.324 99.25C41.0237 99.1967 40.7239 99.1415 40.4246 99.0843C40.2293 93.4171 39.5592 81.7855 37.2737 69.6035C36.0237 62.9363 34.2885 56.102 31.8817 49.9926C31.0571 47.8786 30.1153 45.8123 29.0607 43.8032C26.6287 39.21 23.679 35.3431 20.1021 32.7233L20.6287 32.0044C23.6036 34.1849 26.2771 37.246 28.6494 41.1878C29.361 42.3683 30.0444 43.6277 30.6997 44.9659C31.4024 46.3979 32.0725 47.9181 32.7101 49.5266C33.1169 50.5503 33.5099 51.6094 33.8891 52.7041C35.54 57.4571 36.9433 62.8801 38.0991 68.9733C38.355 70.3195 38.5986 71.6987 38.8299 73.1109C40.6213 84.0532 41.1612 94.1701 41.324 99.25Z" fill="black"/>
<path opacity="0.2" d="M29.9659 95.8239C29.6464 95.6849 29.3269 95.5414 29.0103 95.3934C28.7011 92.0354 28.1331 87.8698 27.0946 83.9156C26.6398 82.1397 26.0559 80.3994 25.3476 78.7085C24.1627 75.9349 22.6286 73.5769 20.6449 72.1227L21.1715 71.4053C23.2485 72.926 24.8505 75.3298 26.0887 78.142C27.4837 81.3106 28.4141 84.9985 29.034 88.5221C29.494 91.139 29.784 93.6671 29.9659 95.8239Z" fill="black"/>
<path opacity="0.2" d="M15.1274 32.7027C17.5856 32.7027 19.5784 30.71 19.5784 28.2518C19.5784 25.7936 17.5856 23.8008 15.1274 23.8008C12.6692 23.8008 10.6765 25.7936 10.6765 28.2518C10.6765 30.71 12.6692 32.7027 15.1274 32.7027Z" fill="black"/>
<path opacity="0.2" d="M16.5609 71.0177C19.0191 71.0177 21.0119 69.0249 21.0119 66.5667C21.0119 64.1085 19.0191 62.1157 16.5609 62.1157C14.1027 62.1157 12.1099 64.1085 12.1099 66.5667C12.1099 69.0249 14.1027 71.0177 16.5609 71.0177Z" fill="black"/>
<path opacity="0.2" d="M32.7979 35.728C31.8541 41.053 33.9377 45.8748 33.9377 45.8748C33.9377 45.8748 37.5516 42.0629 38.4954 36.7378C39.4393 31.4128 37.3557 26.5911 37.3557 26.5911C37.3557 26.5911 33.7418 30.4029 32.7979 35.728Z" fill="black"/>
<path opacity="0.2" d="M18.0056 48.3685C23.0848 50.2258 28.1886 49.0339 28.1886 49.0339C28.1886 49.0339 25.0575 44.8308 19.9784 42.9736C14.8992 41.1163 9.79541 42.3082 9.79541 42.3082C9.79541 42.3082 12.9265 46.5113 18.0056 48.3685Z" fill="black"/>
<path opacity="0.2" d="M17.1443 82.2978C20.7043 83.5996 24.2868 82.7504 24.2868 82.7504C24.2868 82.7504 22.0972 79.7906 18.5371 78.4888C14.9771 77.187 11.3946 78.0362 11.3946 78.0362C11.3946 78.0362 13.5842 80.996 17.1443 82.2978Z" fill="black"/>
<path d="M49.8974 61.0723C60.6628 61.0723 69.39 52.3452 69.39 41.5797C69.39 30.8142 60.6628 22.087 49.8974 22.087C39.1319 22.087 30.4048 30.8142 30.4048 41.5797C30.4048 52.3452 39.1319 61.0723 49.8974 61.0723Z" fill="#F2E4E4"/>
<path d="M42.2831 56.5038C42.2831 56.5038 44.7196 68.0775 44.7196 69.2958C44.7196 70.5141 56.2934 75.9964 56.2934 75.9964L66.6488 74.169L70.3037 63.2044C70.3037 63.2044 64.2123 54.0672 64.2123 50.4124L42.2831 56.5038Z" fill="#F2E4E4"/>
<path d="M95.9734 69.6893L95.8077 70.071C91.2989 80.3282 83.4808 88.7773 73.6036 94.0671C63.7264 99.3568 52.3607 101.182 41.324 99.2499C41.0237 99.1966 40.7239 99.1414 40.4246 99.0842C37.3318 98.4847 34.3033 97.5916 31.3802 96.4171C30.9053 96.2262 30.4339 96.0285 29.966 95.8239C29.6465 95.6848 29.3269 95.5413 29.0104 95.3934C26.1409 94.064 23.4043 92.4651 20.8373 90.6182L18.5266 83.9156L19.8254 82.9245L22.497 80.8845L25.3476 78.7085L26.0888 78.1419L37.2737 69.6035L38.0991 68.9733L43.9127 64.5355L43.9142 64.534C43.9142 64.534 50.2012 74.778 59.3388 71.7322C68.4763 68.6863 68.2766 59.9526 68.2766 59.9526L95.9734 69.6893Z" fill="#24295C"/>
<path d="M32.9934 25.8751C32.9934 25.8751 39.1822 12.466 51.0441 15.5604C62.9061 18.6548 69.6106 23.2965 70.1264 27.9381C70.6421 32.5797 69.8685 39.5421 69.8685 39.5421C69.8685 39.5421 68.5792 30.001 60.3274 32.064C52.0756 34.1269 39.1822 32.5797 39.1822 32.5797L37.1193 51.1462C37.1193 51.1462 34.7984 47.7939 32.2198 49.8569C29.6411 51.9198 24.7416 30.001 32.9934 25.8751Z" fill="#24295C"/>
<path d="M31.3801 96.4171C30.9053 96.2263 30.4339 96.0286 29.9659 95.8239C29.6464 95.6849 29.3269 95.5414 29.0103 95.3935C24.2646 93.1928 19.8927 90.2629 16.0532 86.71C17.4127 84.858 18.5266 83.9156 18.5266 83.9156H27.6642L29.034 88.5222L31.3801 96.4171Z" fill="#2F2E41"/>
<path d="M87.9689 68.6864L95.8077 70.071C93.7099 74.8499 90.8768 79.2708 87.4113 83.1731L87.9689 68.6864Z" fill="#2F2E41"/>
</g>
<defs>
<clipPath id="clip0">
<rect width="100" height="100" fill="white"/>
</clipPath>
</defs>
</svg>
